<?xml version="1.0" encoding="UTF-8"?>
<!DOCTYPE svg PUBLIC "-//W3C//DTD SVG 1.1//EN" "http://www.w3.org/Graphics/SVG/1.1/DTD/svg11.dtd">
<!-- Creator: CorelDRAW 2021 (64-Bit) -->
<svg xmlns="http://www.w3.org/2000/svg" xml:space="preserve" width="5.812mm" height="5.812mm" version="1.1" style="shape-rendering:geometricPrecision; text-rendering:geometricPrecision; image-rendering:optimizeQuality; fill-rule:evenodd; clip-rule:evenodd"
viewBox="0 0 581.2 581.2"
 xmlns:xlink="http://www.w3.org/1999/xlink"
 xmlns:xodm="http://www.corel.com/coreldraw/odm/2003">
 <defs>
  <style type="text/css">
   <![CDATA[
    .str0 {stroke:white;stroke-width:52.92;stroke-linecap:round;stroke-linejoin:round;stroke-miterlimit:22.9256}
    .fil0 {fill:none}
    .fil2 {fill:#FCFBFC}
    .fil1 {fill:white}
   ]]>
  </style>
 </defs>
 <g id="Capa_x0020_1">
  <metadata id="CorelCorpID_0Corel-Layer"/>
  <circle class="fil0 str0" cx="284.28" cy="297.13" r="264.58"/>
  <g id="_1865081530144">
   <path class="fil1" d="M253.33 116.6c-0.55,6.66 -0.16,14.48 -0.16,21.27l0 103.64c0,8.06 0.34,23.42 -0.05,30.95 -0.15,2.86 -3.11,5.18 -6.27,3.56 -2.8,-1.44 -2.17,-5.23 -2.19,-8.67l0 -72.34c0,-8.23 1.04,-34.29 -1.15,-40.25 -1.94,-5.3 -5.65,-9.1 -9.91,-11.53 -5.91,-3.36 -11.36,-3.51 -18.96,-2.38 -2.48,1.13 -3.86,1.22 -6.32,2.76 -2.33,1.46 -3.39,2.46 -5.06,4.15 -2.97,3.02 -4.68,6.95 -5.38,12 -0.36,11.4 -0.07,23.19 -0.07,34.64l0 146.2c0.01,2.64 0.41,5.94 -2.99,5.85 -1.88,-0.05 -4.18,-2.85 -5.19,-3.82 -10.41,-10.03 -23.05,-20.62 -32.7,-30.1 -2.78,-2.74 -6.68,-4.2 -10.71,-5.04 -0.43,-0.09 -0.71,-0.14 -1.1,-0.28 -0.51,-0.17 -0.55,-0.23 -0.79,-0.37 -1.52,0.59 -5.75,0.12 -7.82,0.45 -16.63,2.65 -25.63,19.65 -17.43,33.66 2.15,3.67 11.68,13.51 15.22,17.61 9.68,11.23 21.43,23.34 30.8,34.59 9.48,11.38 20.99,24.19 29.99,35.34 2.52,3.13 5.06,5.91 7.69,8.74 1.44,1.54 7.19,7.09 7.69,8.33 1.16,0.61 7.17,6.81 10.15,9.29 0.81,0.67 0.79,0.55 1.3,1.39 0.85,0.18 0.31,-0.1 1.18,0.58 0.33,0.26 0.41,0.42 0.82,0.77 0.63,0.54 1.03,0.8 1.8,1.39 1.13,0.87 2.58,1.8 3.97,2.73 2.65,1.77 5.34,3.62 8.12,5.3 18.81,11.38 40.01,17.63 64.08,17.75 29.98,0.13 54.62,-8.93 76.3,-25.66 1.53,-1.18 2.41,-2.63 3.63,-2.88l5.99 -6.2c0.79,-0.79 1.18,-1.46 2.07,-1.95 0.53,-1.93 17.56,-17.5 19.69,-46.68 1.55,-21.16 0.95,-42.76 0.95,-64.13 0,-43.37 0,-86.73 0,-130.09 0,-10.4 1.57,-20.99 -4.38,-28.41 -12.38,-15.43 -38.75,-9.62 -42.15,8.89 -0.71,3.83 -0.33,26.54 -0.33,32.28 0,15.43 0.34,33.75 -0.02,48.94 -0.07,2.82 0.45,5.09 -1.57,6.71 -2.01,1.61 -4.72,0.91 -6.01,-0.62 -1.58,-1.88 -0.84,-12.22 -0.84,-15.51l0 -48.63c0,-6.27 0.54,-59.97 -0.43,-64.77 -1.66,-8.21 -8.72,-14.75 -17.25,-16.65 -11.38,-2.55 -20.34,2.63 -24.88,8.35 -5.93,7.48 -4.3,18.17 -4.3,28.69l0 97.57c0,4.26 1.53,12.49 -4.16,12.49 -5.74,0.01 -4.17,-7.77 -4.17,-12.19l0 -130.09c0,-10.92 1.58,-20.64 -5.11,-27.94 -6.3,-6.87 -16.07,-9.89 -25.73,-6.97 -8.78,2.66 -13.61,8.18 -15.86,17.29z"/>
   <path class="fil2" d="M221.92 456.24c-0.51,-0.84 -0.49,-0.72 -1.3,-1.39 -2.98,-2.48 -8.99,-8.68 -10.15,-9.29 -0.79,1.16 0.92,2.27 0.34,4.03 1.06,-0.53 0,-0.67 0.98,-0.23l0.38 0.4c0.5,0.25 1.18,0.16 1.3,-0.32 0.02,-0.1 0.11,-0.12 0.18,-0.15 -0.05,1.51 -0.08,0.53 0.33,1.66 0.9,2.45 -1.09,0.4 0.42,1.22l2.46 0.37 -0.74 0.87c-0.04,0.04 -0.11,0.11 -0.13,0.15 -0.31,0.46 -0.17,0.92 0.11,1.32 0.94,-0.27 0.44,-0.14 1.07,-0.34 1.64,-0.51 1.17,1.04 1.24,2.47 0.3,0.12 1.9,0.09 1.94,0.09 0.98,-0.11 1.17,-0.51 1.57,-0.86z"/>
   <path class="fil2" d="M381.82 456.22c0.3,0.24 0.34,0.43 0.38,0.48l0.36 0.33c0.71,0.35 1.29,0.12 2.04,0.07 0.16,-0.19 -0.06,0.8 0.1,-0.35 0.42,-2.92 -0.56,-1.17 1.06,-2.17 -0.08,-1.46 0.32,0.95 -0.12,-0.61l-0.14 -0.26c0.06,0.08 0.25,0.23 0.33,0.27l1.65 0.6c-0.17,-1.08 -0.38,-1.62 0,-2.35 0.98,-0.25 2.1,0.31 2.26,-0.18 0.03,-0.08 0.14,-0.07 0.21,-0.12l0.07 -2.7c0.23,-1.8 -0.11,-1.13 -0.14,-1.16 -0.89,0.49 -1.28,1.16 -2.07,1.95l-5.99 6.2z"/>
  </g>
 </g>
</svg>
