<?xml version="1.0" encoding="UTF-8"?>
<!DOCTYPE svg PUBLIC "-//W3C//DTD SVG 1.0//EN" "http://www.w3.org/TR/2001/REC-SVG-20010904/DTD/svg10.dtd">
<!-- Creator: CorelDRAW X6 -->
<svg xmlns="http://www.w3.org/2000/svg" xml:space="preserve" width="10mm" height="10mm" version="1.0" shape-rendering="geometricPrecision" text-rendering="geometricPrecision" image-rendering="optimizeQuality" fill-rule="evenodd" clip-rule="evenodd"
viewBox="0 0 1000000 1000000"
 xmlns:xlink="http://www.w3.org/1999/xlink">
 <g id="Capa_x0020_1">
  <metadata id="CorelCorpID_0Corel-Layer"/>
  <g id="_827050736">
   <path fill="#4B4B4D" fill-rule="nonzero" d="M153800 3030l20 0 699980 0c41410,0 78940,16800 106070,43940 27140,27130 43940,64660 43940,106070l0 700000c0,41270 -16820,78710 -43940,105850l-110 90 110 110c-27130,27140 -64660,43940 -106070,43940l0 -190 -700000 20c-41540,-20 -79050,-16760 -106050,-43770 -27140,-27130 -43940,-64660 -43940,-106070l190 0 -20 -699980c20,-41520 16760,-79070 43770,-106070 27130,-27140 64650,-43940 106050,-43940zm700000 100010l-699980 0 -20 0c-13800,0 -26310,5610 -35340,14640 -9160,9170 -14850,21720 -14850,35360l20 699980 190 0c0,13800 5610,26330 14640,35360 9170,9160 21720,14850 35340,14850l700000 -20 0 -190c13800,0 26330,-5610 35360,-14640l90 90c8980,-9030 14550,-21580 14550,-35430l0 -700000c0,-13800 -5610,-26330 -14640,-35360 -9030,-9030 -21560,-14640 -35360,-14640z"/>
   <path fill="#4B4B4D" fill-rule="nonzero" d="M443800 263050c0,-33140 26870,-60010 60000,-60010 33130,0 60010,26870 60010,60010l0 479980c0,33140 -26880,60010 -60010,60010 -33130,0 -60000,-26870 -60000,-60010l0 -479980z"/>
   <path fill="#4B4B4D" fill-rule="nonzero" d="M263810 563040c-33130,0 -60010,-26870 -60010,-60000 0,-33130 26880,-60000 60010,-60000l479990 0c33130,0 60000,26870 60000,60000 0,33130 -26870,60000 -60000,60000l-479990 0z"/>
  </g>
 </g>
</svg>
