<?xml version="1.0" encoding="UTF-8"?>
<!DOCTYPE svg PUBLIC "-//W3C//DTD SVG 1.1//EN" "http://www.w3.org/Graphics/SVG/1.1/DTD/svg11.dtd">
<!-- Creator: CorelDRAW 2021 (64-Bit) -->
<svg xmlns="http://www.w3.org/2000/svg" xml:space="preserve" width="5.812mm" height="5.812mm" version="1.1" style="shape-rendering:geometricPrecision; text-rendering:geometricPrecision; image-rendering:optimizeQuality; fill-rule:evenodd; clip-rule:evenodd"
viewBox="0 0 581.2 581.2"
 xmlns:xlink="http://www.w3.org/1999/xlink"
 xmlns:xodm="http://www.corel.com/coreldraw/odm/2003">
 <defs>
  <style type="text/css">
   <![CDATA[
    .fil0 {fill:white}
   ]]>
  </style>
 </defs>
 <g id="Capa_x0020_1">
  <metadata id="CorelCorpID_0Corel-Layer"/>
  <path class="fil0" d="M228.67 536.87c-10.79,0 -15.86,-10.09 -15.86,-15.67 0,-9.59 13.2,-20.15 18.35,-25.06 12.94,-12.3 24.69,0.29 24.69,8.19 0,12.3 -1.99,11.15 -11.04,20.79 -3.92,4.17 -9.21,11.75 -16.14,11.75zm-235.63 -333.77l0 -0.6 155.2 -165.69c6.37,4.54 20.39,21.1 26.9,28.01 32.78,34.88 24.92,25.14 59.64,49.83 8.37,5.95 6.59,7.01 18.6,5.1 7.22,-1.14 15.13,-2.34 22.8,-3.48 15.49,-2.32 31.61,-4.77 46.71,-6.95 15.54,-2.25 12.73,-3.73 30.67,-22.81 7.8,-8.3 47.99,-52.19 52.96,-55.73 5.6,4 16.17,16.66 21.81,22.59 4.17,4.39 6.09,7.77 10.18,12.07 3.69,3.88 6.53,6.92 10.2,10.83l31.72 33.74c1.87,1.98 3.37,3.34 5.05,5.48 14.1,17.95 30.86,33.92 46.5,50.55l41.06 45.49 -56.31 55.78c-7.39,6.57 -37.74,39.01 -43.38,43.02 9.27,14.73 33.11,30.72 40.44,47.37 16.22,36.9 -12.19,71.23 -33.64,73.13 3.51,16.01 -5.97,34.77 -13.83,43.13 -12.82,13.63 -26.1,14.71 -42.81,14.71 -4.18,19.05 -22.72,35.49 -39.73,37.3 -5.02,0.53 -7.53,0.69 -10.46,0.42 -4.73,-0.42 -7.38,-1.26 -10.98,-1.57 -2.91,13.28 -17.28,27.51 -30.15,31.79 -13.4,4.46 -25.62,3.86 -37.86,-2.84 -3.27,-1.78 -5.21,-3.29 -8.23,-5.7 -2.9,-2.32 -5.07,-4.59 -7.59,-6.39 -7.02,5 -13.74,15.34 -20.7,21.37 -31.07,26.89 -73.88,-1.99 -75.59,-23.77 -5.38,0.47 -8.56,2.4 -14.73,2.4 -12.71,0 -26.41,-7.23 -33.16,-14.12 -5.92,-6.05 -11.24,-14.17 -13.72,-22.76 -4.61,-15.98 1.54,-10.03 -11.06,-13.55 -21.26,-5.94 -36.08,-25.42 -36.08,-51.99 -20.3,0 -45.8,-26.38 -40.48,-61.13 3.19,-20.8 18.57,-32.18 30.39,-44.79l13.49 -14.57c-0.96,-3.8 -6.48,-12.99 -8.71,-17.24 -7.72,-14.68 -16.94,-34.91 -27.83,-46.32l-47.29 -52.11zm175.59 301.23c-10,0 -15.86,-7.36 -15.86,-14.46 0,-10.47 19.49,-27.34 29.17,-37.65 3.83,-4.09 6.73,-9.34 13.87,-9.34 8.31,0 14.26,5.55 15.13,13.74 1.18,11.04 -14.15,23.18 -25.04,34.76 -4.15,4.41 -9.98,12.95 -17.27,12.95zm-45.32 -48.2c-10.01,0 -15.73,-7.04 -15.64,-15.67 0.07,-7.93 7.06,-13.16 11.4,-17.77 8.66,-9.2 23.15,-28.01 31.43,-28.01 8.74,0 14.08,5.24 15.23,13.86 1.4,10.44 -15.02,23.87 -25.14,34.64 -4.15,4.41 -9.98,12.95 -17.28,12.95zm-39.64 -53.01c-9.46,0 -17,-3.88 -17,-15.67 0,-8.38 11.94,-18.12 16.71,-23.19 7.77,-8.26 13.1,-17.78 24.07,-17.78 7.01,0 12.31,6.56 13.24,13.71 1.3,9.96 -12.94,21.52 -22.02,31.18 -3.64,3.87 -8.8,11.75 -15,11.75zm131.4 -150.62c-10.18,0 -20.39,-8.16 -20.39,-18.08 0,-10.44 6.92,-15.19 12.18,-20.78 5.75,-6.12 10.64,-11.39 16.43,-17.47 3.44,-3.61 4.37,-5.41 7.37,-9.03l24.9 -26.53c7.2,-7.91 5.76,-5.08 24.28,-7.91 9.45,-1.45 66.56,-8.23 70.88,-11.36 2.35,-1.7 6.73,-6.97 8.22,-9.34l101.95 109.65c3.37,4.7 10.16,12.41 14.73,15.67 -2.69,4.27 -23.84,24.93 -26.06,26.5 -4.77,-3.4 -28.02,-29.2 -35.41,-37.03l-11.32 -13.27c-7.09,-7.53 -41.1,-42.89 -46.16,-50.91l-77.4 12.86c-5.86,1.26 -4.81,1.49 -8.43,5.49l-39.06 41.6c-4.52,4.82 -8.09,9.94 -16.71,9.94zm-54.37 -24.1c0,18.31 2.38,31.41 15.53,44.93 16.56,17.01 43.74,19.73 64.72,9.1 10.55,-5.35 10.41,-8.95 15.74,-14.59 10.28,-10.89 19.93,-20.88 30.02,-31.93 7.11,-7.79 7.76,-5.62 21.89,-8.04 39.87,-6.83 32.9,-7.79 44.39,4.44 34.57,36.78 77.69,82.25 110.44,119.91 9.79,11.26 20.12,16.57 20.12,29.21 0,7.93 -7.13,14.46 -14.73,14.46 -9.61,0 -34.19,-29.75 -41.63,-37.66l-38.8 -40.67 -24.06 25.01c3.42,5.32 54.1,58.16 62.86,67.47 5.04,5.36 18.97,17.03 18.97,25.61 0,12.26 -13.03,24.48 -26.89,9.33 -2.88,-3.15 -3.77,-3.41 -6.76,-6.07 -2.33,-2.08 -4.11,-4.22 -6.29,-6.56l-12.45 -13.27c-7.58,-8.09 -45.84,-49.87 -50.69,-53.32l-24.07 25.01 65.14 69.87c14.35,14.91 3.04,29.23 -8.22,29.23 -7.25,0 -13.84,-10.03 -22.15,-17.41 -12.74,-11.33 -48.85,-53.4 -56.01,-58.5l-24.07 25.01c3.94,6.15 35.04,37.87 44.17,47.59 9.82,10.44 12.75,9.88 12.75,22.59 0,5.69 -10.1,24.7 -29.73,3.91 -7.96,-8.43 -8.6,-3.37 -10.6,-15.23 -3.56,-21.14 -18.74,-37.84 -36.31,-42.12 -11.4,-2.78 -5.44,3.14 -10.98,-14.82 -2.28,-7.39 -5.12,-11.27 -9.13,-16.8 -5.28,-7.28 -15.16,-13.45 -23.43,-16.05 -9.04,-2.85 -6.81,0.7 -9.52,-3.12 -0.69,-0.97 -2.57,-13.05 -6.26,-19.86 -6.25,-11.56 -14.7,-19.79 -27.83,-24.62 -14.12,-5.2 -9.24,3.66 -13.13,-12.54 -4.41,-18.32 -22.91,-37.57 -41.71,-37.57 -0.8,-3.62 -1.47,-4.55 -3.17,-7.47l-19.88 -36.69c-2.11,-4.11 -6.55,-10.92 -7.54,-14.88 4.46,-7.09 21.2,-23.15 28.04,-30.42l50.29 -51.33c2.92,-2.49 4.78,-4.84 7.48,-7.72 6.83,-7.26 21.95,-25.08 28.6,-29.82 6.12,3.44 16.91,12.83 22.66,14.46 -3.05,12.16 -57.77,49.13 -57.77,81.94zm-101.96 -7.23l-17.26 -17.78 69.79 -74.56c8.86,-11.03 31.14,-30.96 36.97,-40.21l19.53 20.19 -19.79 21.71c-2.95,3.1 -4.51,3.73 -7.41,6.59 -9.18,9.03 -17.66,18.82 -26.6,28.33 -2.34,2.48 -3.83,4.22 -6.21,6.65l-41.56 42.55c-3.16,2.6 -4.7,4.56 -7.46,6.53zm326.25 -115.68l20.66 -22.61c4.87,3.4 76.85,82.35 88.38,94.61l29.17 32.83c-3.45,5.48 -6.7,6.84 -11.06,11.13 -3.74,3.68 -6.37,9.08 -11.6,10.56l-3.42 -3.59c-1.24,-1.52 -1.63,-2.2 -3.11,-3.92 -14.32,-16.66 -38.68,-38.8 -51.08,-55.32l-44.06 -47.12c-5.25,-5.58 -9.63,-9.83 -13.88,-16.57z"/>
 </g>
</svg>
