<?xml version="1.0" encoding="UTF-8"?>
<!DOCTYPE svg PUBLIC "-//W3C//DTD SVG 1.1//EN" "http://www.w3.org/Graphics/SVG/1.1/DTD/svg11.dtd">
<!-- Creator: CorelDRAW 2021 (64-Bit) -->
<svg xmlns="http://www.w3.org/2000/svg" xml:space="preserve" width="5.812mm" height="5.812mm" version="1.1" style="shape-rendering:geometricPrecision; text-rendering:geometricPrecision; image-rendering:optimizeQuality; fill-rule:evenodd; clip-rule:evenodd"
viewBox="0 0 581.2 581.2"
 xmlns:xlink="http://www.w3.org/1999/xlink"
 xmlns:xodm="http://www.corel.com/coreldraw/odm/2003">
 <defs>
  <style type="text/css">
   <![CDATA[
    .str0 {stroke:white;stroke-width:52.92;stroke-linecap:round;stroke-linejoin:round;stroke-miterlimit:22.9256}
    .fil0 {fill:none}
    .fil1 {fill:white}
   ]]>
  </style>
 </defs>
 <g id="Capa_x0020_1">
  <metadata id="CorelCorpID_0Corel-Layer"/>
  <circle class="fil0 str0" cx="285.27" cy="296.58" r="264.58"/>
  <path class="fil1" d="M269.43 264.69c3.09,-0.92 30.03,-0.93 32.7,0.05l0.21 146.42c-2.69,0.83 -30.02,0.82 -32.66,0.04l-0.25 -146.51zm103.29 0.01l0.24 146.5c-8.9,0 -17.55,-0.05 -26.2,0 -8.1,0.04 -6.12,3.11 -6.12,-20.32l0 -118.61c-0.01,-9.83 -5.74,-7.57 32.08,-7.57zm-173.91 0.15c6.96,0 26.89,-0.88 32.28,0.28l0.04 145.66 -32.24 0.29 -0.08 -146.23zm68.18 -165.87c-0.72,0.28 -8.27,1.07 -9.79,1.28 -9.24,1.25 -20.97,4.01 -29.52,7.43 -12.1,4.85 -21.36,9.78 -30.96,18.15 -8.04,7.02 -14.54,16.12 -19.92,28.62 -4.01,9.32 -8.02,30.58 -6.29,42.47l49.32 0.05c1.47,-8.77 -1.72,-14.29 5.38,-26.33 17.87,-30.3 96.91,-29.22 117.9,-4.65 5.3,6.21 8.2,12.8 8.47,23.45 0.26,10.5 0.02,21.32 0.02,31.86 -22.26,0.89 -46.3,0.06 -68.76,0.06l-102.78 0c-20.2,0 -36.35,-1.07 -50.49,17.8 -3.41,4.56 -10.27,18.26 -8.05,25.64l38.64 0.06 0.06 146.04c-6.09,0.74 -36.39,-1.2 -38.69,0.66 -2.38,3.07 2.87,16.28 4.48,19.53 2.78,5.61 7.44,10.77 11.89,14.21 13.48,10.43 24.46,9.1 43.19,9.1 69.37,0 138.74,0 208.11,0 18.79,0 30.57,1.55 43.81,-8.49 8.52,-6.46 18.02,-18.45 17.6,-34.6l-39.09 -0.13 -0.11 -146.28 39.15 -0.23c0.75,-16.08 -9.95,-31.2 -22.82,-38.09 -5.57,-2.98 -8.54,-3.31 -15.02,-4.9l-10.99 -0.3c-2.37,-9.22 3.04,-35.53 -4.36,-60.07 -4.98,-16.51 -14.49,-29.55 -25.98,-38.42 -28.02,-21.62 -62.33,-26.26 -104.4,-23.92z"/>
 </g>
</svg>
