<?xml version="1.0" encoding="UTF-8"?>
<!DOCTYPE svg PUBLIC "-//W3C//DTD SVG 1.0//EN" "http://www.w3.org/TR/2001/REC-SVG-20010904/DTD/svg10.dtd">
<!-- Creator: CorelDRAW X6 -->
<svg xmlns="http://www.w3.org/2000/svg" xml:space="preserve" width="30mm" height="28mm" version="1.0" shape-rendering="geometricPrecision" text-rendering="geometricPrecision" image-rendering="optimizeQuality" fill-rule="evenodd" clip-rule="evenodd"
viewBox="0 0 3000000 2800000"
 xmlns:xlink="http://www.w3.org/1999/xlink">
 <g id="Capa_x0020_1">
  <metadata id="CorelCorpID_0Corel-Layer"/>
  <g id="_1168949184">
   <path fill="black" d="M-42660 -2750l248860 0 0 10 351310 0 248860 0 0 244520 0 289150 0 244520 -248860 0 -351310 0 0 499260 -248860 0 0 -1277460zm600170 533680l0 -289150 -351310 0 0 289150 351310 0zm-115060 744210l0 -244520 640640 0 0 -1033140 248860 0 0 1033140 200 0 0 244520 -200 0 -248860 0 -640640 0z"/>
   <path fill="black" d="M-42240 1519530l248850 0 0 10 351320 0 248860 0 0 244520 0 289150 0 244520 -248860 0 -351320 0 0 499260 -248850 0 0 -1277460zm600170 533680l0 -289150 -351320 0 0 289150 351320 0zm-115070 744210l0 -244520 640650 0 0 -1033140 248850 0 0 1033140 210 0 0 244520 -210 0 -248850 0 -640650 0z"/>
   <path fill="black" d="M1582110 -3160l248850 0 0 10 351320 0 248860 0 0 244520 0 289150 0 244520 -248860 0 -351320 0 0 499260 -248850 0 0 -1277460zm600170 533680l0 -289150 -351320 0 0 289150 351320 0zm-115070 744210l0 -244520 640650 0 0 -1033140 248850 0 0 1033140 210 0 0 244520 -210 0 -248850 0 -640650 0z"/>
   <path fill="black" d="M1582530 1519120l248850 0 0 10 351320 0 248850 0 0 244520 0 289150 0 244520 -248850 0 -351320 0 0 499260 -248850 0 0 -1277460zm600170 533680l0 -289150 -351320 0 0 289150 351320 0zm-115070 744210l0 -244520 640650 0 0 -1033140 248850 0 0 1033140 210 0 0 244520 -210 0 -248850 0 -640650 0z"/>
  </g>
 </g>
</svg>
