<?xml version="1.0" encoding="UTF-8"?>
<!DOCTYPE svg PUBLIC "-//W3C//DTD SVG 1.1//EN" "http://www.w3.org/Graphics/SVG/1.1/DTD/svg11.dtd">
<!-- Creator: CorelDRAW 2021 (64-Bit) -->
<svg xmlns="http://www.w3.org/2000/svg" xml:space="preserve" width="3.5mm" height="5.812mm" version="1.1" style="shape-rendering:geometricPrecision; text-rendering:geometricPrecision; image-rendering:optimizeQuality; fill-rule:evenodd; clip-rule:evenodd"
viewBox="0 0 350 581.2"
 xmlns:xlink="http://www.w3.org/1999/xlink"
 xmlns:xodm="http://www.corel.com/coreldraw/odm/2003">
 <defs>
  <style type="text/css">
   <![CDATA[
    .str0 {stroke:#FF0066;stroke-width:45.86;stroke-linecap:round;stroke-linejoin:round;stroke-miterlimit:22.9256}
    .fil0 {fill:none}
   ]]>
  </style>
 </defs>
 <g id="Capa_x0020_1">
  <metadata id="CorelCorpID_0Corel-Layer"/>
  <path class="fil0 str0" d="M135.88 239.56l72.51 0c24.35,0 44.24,12.82 44.24,28.51l0 76.88 54.79 124.36c1.34,3.09 -4.07,5.84 -9.06,5.84l-81.09 0 0 76.57c0,7.07 -8.97,12.84 -19.94,12.84l-52.35 0c-10.97,0 -19.93,-5.77 -19.93,-12.84l0 -76.57 -81.81 0c-4.99,0 -10.39,-2.79 -9.06,-5.84l57.46 -130.42 0 -70.82c0,-15.69 19.89,-28.51 44.24,-28.51z"/>
  <circle class="fil0 str0" cx="170.58" cy="103.06" r="73.5"/>
 </g>
</svg>
