<?xml version="1.0" encoding="UTF-8"?>
<!DOCTYPE svg PUBLIC "-//W3C//DTD SVG 1.1//EN" "http://www.w3.org/Graphics/SVG/1.1/DTD/svg11.dtd">
<!-- Creator: CorelDRAW 2021 (64-Bit) -->
<svg xmlns="http://www.w3.org/2000/svg" xml:space="preserve" width="210mm" height="297mm" version="1.1" style="shape-rendering:geometricPrecision; text-rendering:geometricPrecision; image-rendering:optimizeQuality; fill-rule:evenodd; clip-rule:evenodd"
viewBox="0 0 21000 29700"
 xmlns:xlink="http://www.w3.org/1999/xlink"
 xmlns:xodm="http://www.corel.com/coreldraw/odm/2003">
 <defs>
  <style type="text/css">
   <![CDATA[
    .str0 {stroke:black;stroke-width:45.86;stroke-linecap:round;stroke-linejoin:round;stroke-miterlimit:22.9256}
    .fil0 {fill:none}
   ]]>
  </style>
 </defs>
 <g id="Capa_x0020_1">
  <metadata id="CorelCorpID_0Corel-Layer"/>
  <path class="fil0 str0" d="M13556.24 11638.4l72.38 0c24.3,0 44.16,12.8 44.16,28.45l0 76.74 54.68 124.13c1.34,3.08 -4.06,5.82 -9.04,5.82l-80.94 0 0 76.43c0,7.05 -8.95,12.82 -19.9,12.82l-52.25 0c-10.95,0 -19.9,-5.77 -19.9,-12.82l0 -76.43 -81.65 0c-4.98,0 -10.37,-2.78 -9.04,-5.82l57.35 -130.18 0 -70.69c0,-15.65 19.86,-28.45 44.15,-28.45z"/>
  <circle class="fil0 str0" cx="13590.88" cy="11502.16" r="73.36"/>
 </g>
</svg>
